<svg xmlns="http://www.w3.org/2000/svg" viewBox="0 0 100 100" role="img" aria-label="Stella Globe">
  <defs>
    <radialGradient id="stellaDotGradient" cx="50" cy="50" r="34" gradientUnits="userSpaceOnUse">
      <stop offset="0%" stop-color="#7aa2f7" />
      <stop offset="33%" stop-color="#bb9af7" />
      <stop offset="66%" stop-color="#7dcfff" />
      <stop offset="86%" stop-color="#9ece6a" />
      <stop offset="100%" stop-color="#9ece6a" />
    </radialGradient>
  </defs>
  <circle cx="44.00" cy="20.00" r="0.42" fill="url(#stellaDotGradient)" opacity="0.321" />
  <circle cx="48.00" cy="20.00" r="0.42" fill="url(#stellaDotGradient)" opacity="0.383" />
  <circle cx="52.00" cy="20.00" r="0.42" fill="url(#stellaDotGradient)" opacity="0.383" />
  <circle cx="56.00" cy="20.00" r="0.42" fill="url(#stellaDotGradient)" opacity="0.321" />
  <circle cx="36.00" cy="24.00" r="0.43" fill="url(#stellaDotGradient)" opacity="0.428" />
  <circle cx="40.00" cy="24.00" r="0.46" fill="url(#stellaDotGradient)" opacity="0.529" />
  <circle cx="44.00" cy="24.00" r="0.49" fill="url(#stellaDotGradient)" opacity="0.582" />
  <circle cx="48.00" cy="24.00" r="0.50" fill="url(#stellaDotGradient)" opacity="0.606" />
  <circle cx="52.00" cy="24.00" r="0.50" fill="url(#stellaDotGradient)" opacity="0.606" />
  <circle cx="56.00" cy="24.00" r="0.49" fill="url(#stellaDotGradient)" opacity="0.582" />
  <circle cx="60.00" cy="24.00" r="0.46" fill="url(#stellaDotGradient)" opacity="0.529" />
  <circle cx="64.00" cy="24.00" r="0.43" fill="url(#stellaDotGradient)" opacity="0.428" />
  <circle cx="32.00" cy="28.00" r="0.45" fill="url(#stellaDotGradient)" opacity="0.499" />
  <circle cx="36.00" cy="28.00" r="0.50" fill="url(#stellaDotGradient)" opacity="0.606" />
  <circle cx="40.00" cy="28.00" r="0.57" fill="url(#stellaDotGradient)" opacity="0.670" />
  <circle cx="44.00" cy="28.00" r="0.62" fill="url(#stellaDotGradient)" opacity="0.708" />
  <circle cx="48.00" cy="28.00" r="0.65" fill="url(#stellaDotGradient)" opacity="0.726" />
  <circle cx="52.00" cy="28.00" r="0.65" fill="url(#stellaDotGradient)" opacity="0.726" />
  <circle cx="56.00" cy="28.00" r="0.62" fill="url(#stellaDotGradient)" opacity="0.708" />
  <circle cx="60.00" cy="28.00" r="0.57" fill="url(#stellaDotGradient)" opacity="0.670" />
  <circle cx="64.00" cy="28.00" r="0.50" fill="url(#stellaDotGradient)" opacity="0.606" />
  <circle cx="68.00" cy="28.00" r="0.45" fill="url(#stellaDotGradient)" opacity="0.499" />
  <circle cx="28.00" cy="32.00" r="0.45" fill="url(#stellaDotGradient)" opacity="0.499" />
  <circle cx="32.00" cy="32.00" r="0.52" fill="url(#stellaDotGradient)" opacity="0.628" />
  <circle cx="36.00" cy="32.00" r="0.62" fill="url(#stellaDotGradient)" opacity="0.708" />
  <circle cx="40.00" cy="32.00" r="0.72" fill="url(#stellaDotGradient)" opacity="0.761" />
  <circle cx="44.00" cy="32.00" r="0.80" fill="url(#stellaDotGradient)" opacity="0.793" />
  <circle cx="48.00" cy="32.00" r="0.85" fill="url(#stellaDotGradient)" opacity="0.809" />
  <circle cx="52.00" cy="32.00" r="0.85" fill="url(#stellaDotGradient)" opacity="0.809" />
  <circle cx="56.00" cy="32.00" r="0.80" fill="url(#stellaDotGradient)" opacity="0.793" />
  <circle cx="60.00" cy="32.00" r="0.72" fill="url(#stellaDotGradient)" opacity="0.761" />
  <circle cx="64.00" cy="32.00" r="0.62" fill="url(#stellaDotGradient)" opacity="0.708" />
  <circle cx="68.00" cy="32.00" r="0.52" fill="url(#stellaDotGradient)" opacity="0.628" />
  <circle cx="72.00" cy="32.00" r="0.45" fill="url(#stellaDotGradient)" opacity="0.499" />
  <circle cx="24.00" cy="36.00" r="0.43" fill="url(#stellaDotGradient)" opacity="0.428" />
  <circle cx="28.00" cy="36.00" r="0.50" fill="url(#stellaDotGradient)" opacity="0.606" />
  <circle cx="32.00" cy="36.00" r="0.62" fill="url(#stellaDotGradient)" opacity="0.708" />
  <circle cx="36.00" cy="36.00" r="0.76" fill="url(#stellaDotGradient)" opacity="0.777" />
  <circle cx="40.00" cy="36.00" r="0.90" fill="url(#stellaDotGradient)" opacity="0.824" />
  <circle cx="44.00" cy="36.00" r="1.02" fill="url(#stellaDotGradient)" opacity="0.853" />
  <circle cx="48.00" cy="36.00" r="1.09" fill="url(#stellaDotGradient)" opacity="0.867" />
  <circle cx="52.00" cy="36.00" r="1.09" fill="url(#stellaDotGradient)" opacity="0.867" />
  <circle cx="56.00" cy="36.00" r="1.02" fill="url(#stellaDotGradient)" opacity="0.853" />
  <circle cx="60.00" cy="36.00" r="0.90" fill="url(#stellaDotGradient)" opacity="0.824" />
  <circle cx="64.00" cy="36.00" r="0.76" fill="url(#stellaDotGradient)" opacity="0.777" />
  <circle cx="68.00" cy="36.00" r="0.62" fill="url(#stellaDotGradient)" opacity="0.708" />
  <circle cx="72.00" cy="36.00" r="0.50" fill="url(#stellaDotGradient)" opacity="0.606" />
  <circle cx="76.00" cy="36.00" r="0.43" fill="url(#stellaDotGradient)" opacity="0.428" />
  <circle cx="24.00" cy="40.00" r="0.46" fill="url(#stellaDotGradient)" opacity="0.529" />
  <circle cx="28.00" cy="40.00" r="0.57" fill="url(#stellaDotGradient)" opacity="0.670" />
  <circle cx="32.00" cy="40.00" r="0.72" fill="url(#stellaDotGradient)" opacity="0.761" />
  <circle cx="36.00" cy="40.00" r="0.90" fill="url(#stellaDotGradient)" opacity="0.824" />
  <circle cx="40.00" cy="40.00" r="1.09" fill="url(#stellaDotGradient)" opacity="0.867" />
  <circle cx="44.00" cy="40.00" r="1.27" fill="url(#stellaDotGradient)" opacity="0.895" />
  <circle cx="48.00" cy="40.00" r="1.38" fill="url(#stellaDotGradient)" opacity="0.908" />
  <circle cx="52.00" cy="40.00" r="1.38" fill="url(#stellaDotGradient)" opacity="0.908" />
  <circle cx="56.00" cy="40.00" r="1.27" fill="url(#stellaDotGradient)" opacity="0.895" />
  <circle cx="60.00" cy="40.00" r="1.09" fill="url(#stellaDotGradient)" opacity="0.867" />
  <circle cx="64.00" cy="40.00" r="0.90" fill="url(#stellaDotGradient)" opacity="0.824" />
  <circle cx="68.00" cy="40.00" r="0.72" fill="url(#stellaDotGradient)" opacity="0.761" />
  <circle cx="72.00" cy="40.00" r="0.57" fill="url(#stellaDotGradient)" opacity="0.670" />
  <circle cx="76.00" cy="40.00" r="0.46" fill="url(#stellaDotGradient)" opacity="0.529" />
  <circle cx="20.00" cy="44.00" r="0.42" fill="url(#stellaDotGradient)" opacity="0.321" />
  <circle cx="24.00" cy="44.00" r="0.49" fill="url(#stellaDotGradient)" opacity="0.582" />
  <circle cx="28.00" cy="44.00" r="0.62" fill="url(#stellaDotGradient)" opacity="0.708" />
  <circle cx="32.00" cy="44.00" r="0.80" fill="url(#stellaDotGradient)" opacity="0.793" />
  <circle cx="36.00" cy="44.00" r="1.02" fill="url(#stellaDotGradient)" opacity="0.853" />
  <circle cx="40.00" cy="44.00" r="1.27" fill="url(#stellaDotGradient)" opacity="0.895" />
  <circle cx="44.00" cy="44.00" r="1.52" fill="url(#stellaDotGradient)" opacity="0.921" />
  <circle cx="48.00" cy="44.00" r="1.71" fill="url(#stellaDotGradient)" opacity="0.934" />
  <circle cx="52.00" cy="44.00" r="1.71" fill="url(#stellaDotGradient)" opacity="0.934" />
  <circle cx="56.00" cy="44.00" r="1.52" fill="url(#stellaDotGradient)" opacity="0.921" />
  <circle cx="60.00" cy="44.00" r="1.27" fill="url(#stellaDotGradient)" opacity="0.895" />
  <circle cx="64.00" cy="44.00" r="1.02" fill="url(#stellaDotGradient)" opacity="0.853" />
  <circle cx="68.00" cy="44.00" r="0.80" fill="url(#stellaDotGradient)" opacity="0.793" />
  <circle cx="72.00" cy="44.00" r="0.62" fill="url(#stellaDotGradient)" opacity="0.708" />
  <circle cx="76.00" cy="44.00" r="0.49" fill="url(#stellaDotGradient)" opacity="0.582" />
  <circle cx="80.00" cy="44.00" r="0.42" fill="url(#stellaDotGradient)" opacity="0.321" />
  <circle cx="20.00" cy="48.00" r="0.42" fill="url(#stellaDotGradient)" opacity="0.383" />
  <circle cx="24.00" cy="48.00" r="0.50" fill="url(#stellaDotGradient)" opacity="0.606" />
  <circle cx="28.00" cy="48.00" r="0.65" fill="url(#stellaDotGradient)" opacity="0.726" />
  <circle cx="32.00" cy="48.00" r="0.85" fill="url(#stellaDotGradient)" opacity="0.809" />
  <circle cx="36.00" cy="48.00" r="1.09" fill="url(#stellaDotGradient)" opacity="0.867" />
  <circle cx="40.00" cy="48.00" r="1.38" fill="url(#stellaDotGradient)" opacity="0.908" />
  <circle cx="44.00" cy="48.00" r="1.71" fill="url(#stellaDotGradient)" opacity="0.934" />
  <circle cx="48.00" cy="48.00" r="2.03" fill="url(#stellaDotGradient)" opacity="0.947" />
  <circle cx="52.00" cy="48.00" r="2.03" fill="url(#stellaDotGradient)" opacity="0.947" />
  <circle cx="56.00" cy="48.00" r="1.71" fill="url(#stellaDotGradient)" opacity="0.934" />
  <circle cx="60.00" cy="48.00" r="1.38" fill="url(#stellaDotGradient)" opacity="0.908" />
  <circle cx="64.00" cy="48.00" r="1.09" fill="url(#stellaDotGradient)" opacity="0.867" />
  <circle cx="68.00" cy="48.00" r="0.85" fill="url(#stellaDotGradient)" opacity="0.809" />
  <circle cx="72.00" cy="48.00" r="0.65" fill="url(#stellaDotGradient)" opacity="0.726" />
  <circle cx="76.00" cy="48.00" r="0.50" fill="url(#stellaDotGradient)" opacity="0.606" />
  <circle cx="80.00" cy="48.00" r="0.42" fill="url(#stellaDotGradient)" opacity="0.383" />
  <circle cx="20.00" cy="52.00" r="0.42" fill="url(#stellaDotGradient)" opacity="0.383" />
  <circle cx="24.00" cy="52.00" r="0.50" fill="url(#stellaDotGradient)" opacity="0.606" />
  <circle cx="28.00" cy="52.00" r="0.65" fill="url(#stellaDotGradient)" opacity="0.726" />
  <circle cx="32.00" cy="52.00" r="0.85" fill="url(#stellaDotGradient)" opacity="0.809" />
  <circle cx="36.00" cy="52.00" r="1.09" fill="url(#stellaDotGradient)" opacity="0.867" />
  <circle cx="40.00" cy="52.00" r="1.38" fill="url(#stellaDotGradient)" opacity="0.908" />
  <circle cx="44.00" cy="52.00" r="1.71" fill="url(#stellaDotGradient)" opacity="0.934" />
  <circle cx="48.00" cy="52.00" r="2.03" fill="url(#stellaDotGradient)" opacity="0.947" />
  <circle cx="52.00" cy="52.00" r="2.03" fill="url(#stellaDotGradient)" opacity="0.947" />
  <circle cx="56.00" cy="52.00" r="1.71" fill="url(#stellaDotGradient)" opacity="0.934" />
  <circle cx="60.00" cy="52.00" r="1.38" fill="url(#stellaDotGradient)" opacity="0.908" />
  <circle cx="64.00" cy="52.00" r="1.09" fill="url(#stellaDotGradient)" opacity="0.867" />
  <circle cx="68.00" cy="52.00" r="0.85" fill="url(#stellaDotGradient)" opacity="0.809" />
  <circle cx="72.00" cy="52.00" r="0.65" fill="url(#stellaDotGradient)" opacity="0.726" />
  <circle cx="76.00" cy="52.00" r="0.50" fill="url(#stellaDotGradient)" opacity="0.606" />
  <circle cx="80.00" cy="52.00" r="0.42" fill="url(#stellaDotGradient)" opacity="0.383" />
  <circle cx="20.00" cy="56.00" r="0.42" fill="url(#stellaDotGradient)" opacity="0.321" />
  <circle cx="24.00" cy="56.00" r="0.49" fill="url(#stellaDotGradient)" opacity="0.582" />
  <circle cx="28.00" cy="56.00" r="0.62" fill="url(#stellaDotGradient)" opacity="0.708" />
  <circle cx="32.00" cy="56.00" r="0.80" fill="url(#stellaDotGradient)" opacity="0.793" />
  <circle cx="36.00" cy="56.00" r="1.02" fill="url(#stellaDotGradient)" opacity="0.853" />
  <circle cx="40.00" cy="56.00" r="1.27" fill="url(#stellaDotGradient)" opacity="0.895" />
  <circle cx="44.00" cy="56.00" r="1.52" fill="url(#stellaDotGradient)" opacity="0.921" />
  <circle cx="48.00" cy="56.00" r="1.71" fill="url(#stellaDotGradient)" opacity="0.934" />
  <circle cx="52.00" cy="56.00" r="1.71" fill="url(#stellaDotGradient)" opacity="0.934" />
  <circle cx="56.00" cy="56.00" r="1.52" fill="url(#stellaDotGradient)" opacity="0.921" />
  <circle cx="60.00" cy="56.00" r="1.27" fill="url(#stellaDotGradient)" opacity="0.895" />
  <circle cx="64.00" cy="56.00" r="1.02" fill="url(#stellaDotGradient)" opacity="0.853" />
  <circle cx="68.00" cy="56.00" r="0.80" fill="url(#stellaDotGradient)" opacity="0.793" />
  <circle cx="72.00" cy="56.00" r="0.62" fill="url(#stellaDotGradient)" opacity="0.708" />
  <circle cx="76.00" cy="56.00" r="0.49" fill="url(#stellaDotGradient)" opacity="0.582" />
  <circle cx="80.00" cy="56.00" r="0.42" fill="url(#stellaDotGradient)" opacity="0.321" />
  <circle cx="24.00" cy="60.00" r="0.46" fill="url(#stellaDotGradient)" opacity="0.529" />
  <circle cx="28.00" cy="60.00" r="0.57" fill="url(#stellaDotGradient)" opacity="0.670" />
  <circle cx="32.00" cy="60.00" r="0.72" fill="url(#stellaDotGradient)" opacity="0.761" />
  <circle cx="36.00" cy="60.00" r="0.90" fill="url(#stellaDotGradient)" opacity="0.824" />
  <circle cx="40.00" cy="60.00" r="1.09" fill="url(#stellaDotGradient)" opacity="0.867" />
  <circle cx="44.00" cy="60.00" r="1.27" fill="url(#stellaDotGradient)" opacity="0.895" />
  <circle cx="48.00" cy="60.00" r="1.38" fill="url(#stellaDotGradient)" opacity="0.908" />
  <circle cx="52.00" cy="60.00" r="1.38" fill="url(#stellaDotGradient)" opacity="0.908" />
  <circle cx="56.00" cy="60.00" r="1.27" fill="url(#stellaDotGradient)" opacity="0.895" />
  <circle cx="60.00" cy="60.00" r="1.09" fill="url(#stellaDotGradient)" opacity="0.867" />
  <circle cx="64.00" cy="60.00" r="0.90" fill="url(#stellaDotGradient)" opacity="0.824" />
  <circle cx="68.00" cy="60.00" r="0.72" fill="url(#stellaDotGradient)" opacity="0.761" />
  <circle cx="72.00" cy="60.00" r="0.57" fill="url(#stellaDotGradient)" opacity="0.670" />
  <circle cx="76.00" cy="60.00" r="0.46" fill="url(#stellaDotGradient)" opacity="0.529" />
  <circle cx="24.00" cy="64.00" r="0.43" fill="url(#stellaDotGradient)" opacity="0.428" />
  <circle cx="28.00" cy="64.00" r="0.50" fill="url(#stellaDotGradient)" opacity="0.606" />
  <circle cx="32.00" cy="64.00" r="0.62" fill="url(#stellaDotGradient)" opacity="0.708" />
  <circle cx="36.00" cy="64.00" r="0.76" fill="url(#stellaDotGradient)" opacity="0.777" />
  <circle cx="40.00" cy="64.00" r="0.90" fill="url(#stellaDotGradient)" opacity="0.824" />
  <circle cx="44.00" cy="64.00" r="1.02" fill="url(#stellaDotGradient)" opacity="0.853" />
  <circle cx="48.00" cy="64.00" r="1.09" fill="url(#stellaDotGradient)" opacity="0.867" />
  <circle cx="52.00" cy="64.00" r="1.09" fill="url(#stellaDotGradient)" opacity="0.867" />
  <circle cx="56.00" cy="64.00" r="1.02" fill="url(#stellaDotGradient)" opacity="0.853" />
  <circle cx="60.00" cy="64.00" r="0.90" fill="url(#stellaDotGradient)" opacity="0.824" />
  <circle cx="64.00" cy="64.00" r="0.76" fill="url(#stellaDotGradient)" opacity="0.777" />
  <circle cx="68.00" cy="64.00" r="0.62" fill="url(#stellaDotGradient)" opacity="0.708" />
  <circle cx="72.00" cy="64.00" r="0.50" fill="url(#stellaDotGradient)" opacity="0.606" />
  <circle cx="76.00" cy="64.00" r="0.43" fill="url(#stellaDotGradient)" opacity="0.428" />
  <circle cx="28.00" cy="68.00" r="0.45" fill="url(#stellaDotGradient)" opacity="0.499" />
  <circle cx="32.00" cy="68.00" r="0.52" fill="url(#stellaDotGradient)" opacity="0.628" />
  <circle cx="36.00" cy="68.00" r="0.62" fill="url(#stellaDotGradient)" opacity="0.708" />
  <circle cx="40.00" cy="68.00" r="0.72" fill="url(#stellaDotGradient)" opacity="0.761" />
  <circle cx="44.00" cy="68.00" r="0.80" fill="url(#stellaDotGradient)" opacity="0.793" />
  <circle cx="48.00" cy="68.00" r="0.85" fill="url(#stellaDotGradient)" opacity="0.809" />
  <circle cx="52.00" cy="68.00" r="0.85" fill="url(#stellaDotGradient)" opacity="0.809" />
  <circle cx="56.00" cy="68.00" r="0.80" fill="url(#stellaDotGradient)" opacity="0.793" />
  <circle cx="60.00" cy="68.00" r="0.72" fill="url(#stellaDotGradient)" opacity="0.761" />
  <circle cx="64.00" cy="68.00" r="0.62" fill="url(#stellaDotGradient)" opacity="0.708" />
  <circle cx="68.00" cy="68.00" r="0.52" fill="url(#stellaDotGradient)" opacity="0.628" />
  <circle cx="72.00" cy="68.00" r="0.45" fill="url(#stellaDotGradient)" opacity="0.499" />
  <circle cx="32.00" cy="72.00" r="0.45" fill="url(#stellaDotGradient)" opacity="0.499" />
  <circle cx="36.00" cy="72.00" r="0.50" fill="url(#stellaDotGradient)" opacity="0.606" />
  <circle cx="40.00" cy="72.00" r="0.57" fill="url(#stellaDotGradient)" opacity="0.670" />
  <circle cx="44.00" cy="72.00" r="0.62" fill="url(#stellaDotGradient)" opacity="0.708" />
  <circle cx="48.00" cy="72.00" r="0.65" fill="url(#stellaDotGradient)" opacity="0.726" />
  <circle cx="52.00" cy="72.00" r="0.65" fill="url(#stellaDotGradient)" opacity="0.726" />
  <circle cx="56.00" cy="72.00" r="0.62" fill="url(#stellaDotGradient)" opacity="0.708" />
  <circle cx="60.00" cy="72.00" r="0.57" fill="url(#stellaDotGradient)" opacity="0.670" />
  <circle cx="64.00" cy="72.00" r="0.50" fill="url(#stellaDotGradient)" opacity="0.606" />
  <circle cx="68.00" cy="72.00" r="0.45" fill="url(#stellaDotGradient)" opacity="0.499" />
  <circle cx="36.00" cy="76.00" r="0.43" fill="url(#stellaDotGradient)" opacity="0.428" />
  <circle cx="40.00" cy="76.00" r="0.46" fill="url(#stellaDotGradient)" opacity="0.529" />
  <circle cx="44.00" cy="76.00" r="0.49" fill="url(#stellaDotGradient)" opacity="0.582" />
  <circle cx="48.00" cy="76.00" r="0.50" fill="url(#stellaDotGradient)" opacity="0.606" />
  <circle cx="52.00" cy="76.00" r="0.50" fill="url(#stellaDotGradient)" opacity="0.606" />
  <circle cx="56.00" cy="76.00" r="0.49" fill="url(#stellaDotGradient)" opacity="0.582" />
  <circle cx="60.00" cy="76.00" r="0.46" fill="url(#stellaDotGradient)" opacity="0.529" />
  <circle cx="64.00" cy="76.00" r="0.43" fill="url(#stellaDotGradient)" opacity="0.428" />
  <circle cx="44.00" cy="80.00" r="0.42" fill="url(#stellaDotGradient)" opacity="0.321" />
  <circle cx="48.00" cy="80.00" r="0.42" fill="url(#stellaDotGradient)" opacity="0.383" />
  <circle cx="52.00" cy="80.00" r="0.42" fill="url(#stellaDotGradient)" opacity="0.383" />
  <circle cx="56.00" cy="80.00" r="0.42" fill="url(#stellaDotGradient)" opacity="0.321" />
</svg>
